<?xml version="1.0" standalone="no"?>
<!DOCTYPE svg PUBLIC "-//W3C//DTD SVG 20010904//EN"
 "http://www.w3.org/TR/2001/REC-SVG-20010904/DTD/svg10.dtd">
<svg version="1.0" xmlns="http://www.w3.org/2000/svg"
 width="165.000000pt" height="165.000000pt" viewBox="0 0 165.000000 165.000000"
 preserveAspectRatio="xMidYMid meet">

<g transform="translate(0.000000,165.000000) scale(0.100000,-0.100000)"
fill="#000000" stroke="none">
<path d="M280 825 l0 -385 545 0 545 0 0 385 0 385 -545 0 -545 0 0 -385z
m1070 0 l0 -365 -525 0 -525 0 0 365 0 365 525 0 525 0 0 -365z"/>
<path d="M586 1119 c-83 -20 -135 -89 -136 -181 0 -83 32 -136 105 -169 31
-15 65 -19 153 -19 102 0 142 10 92 23 -19 5 -20 14 -20 155 0 158 3 182 26
182 8 0 14 5 14 10 0 12 -180 12 -234 -1z m136 -21 c13 -21 10 -312 -4 -326
-18 -18 -88 -15 -128 6 -74 36 -104 167 -59 259 21 43 39 58 88 74 34 11 92 3
103 -13z"/>
<path d="M840 1121 c0 -5 7 -11 15 -15 12 -4 15 -33 15 -171 0 -140 -2 -165
-15 -165 -8 0 -15 -4 -15 -10 0 -14 195 -13 245 1 86 24 137 118 117 217 -24
115 -74 146 -244 149 -65 2 -118 -1 -118 -6z m238 -27 c78 -50 94 -212 29
-283 -42 -45 -137 -67 -165 -39 -8 8 -12 60 -12 170 0 139 2 158 18 168 21 13
99 3 130 -16z"/>
<path d="M375 600 c0 -64 3 -80 15 -80 12 0 15 16 15 80 0 64 -3 80 -15 80
-12 0 -15 -16 -15 -80z"/>
<path d="M480 660 c27 -27 26 -80 -2 -116 -19 -24 -20 -27 -4 -21 10 4 19 7
22 7 2 0 11 14 19 31 20 38 12 83 -18 104 -31 21 -41 19 -17 -5z"/>
<path d="M566 658 c-33 -47 -8 -138 37 -138 8 0 9 3 1 8 -34 22 -43 80 -20
125 18 32 4 36 -18 5z"/>
<path d="M664 658 c23 -32 20 -94 -4 -118 -21 -21 -21 -24 5 -14 43 17 54 96
18 137 -23 25 -37 21 -19 -5z"/>
<path d="M742 668 c-26 -26 -10 -57 42 -83 23 -11 35 -55 15 -55 -7 0 -9 -3
-6 -6 11 -12 37 18 37 42 0 17 -10 29 -40 44 -41 21 -49 37 -28 58 7 7 8 12 2
12 -5 0 -15 -5 -22 -12z"/>
<path d="M812 660 c14 -22 24 -19 15 5 -4 8 -11 15 -17 15 -6 0 -6 -7 2 -20z"/>
<path d="M872 668 c-7 -7 -12 -19 -12 -28 0 -18 30 -50 47 -50 6 0 16 -7 24
-16 10 -12 10 -20 1 -35 -13 -21 -3 -26 16 -7 25 25 14 57 -29 78 -35 18 -40
25 -35 46 7 27 5 29 -12 12z"/>
<path d="M942 660 c14 -22 24 -19 15 5 -4 8 -11 15 -17 15 -6 0 -6 -7 2 -20z"/>
<path d="M998 600 c-3 -74 -2 -80 17 -80 19 0 20 6 17 80 -3 59 -7 80 -17 80
-10 0 -14 -21 -17 -80z"/>
<path d="M1098 664 c30 -21 31 -95 2 -124 -11 -11 -15 -20 -10 -20 22 0 60 50
60 78 0 34 -34 82 -58 82 -13 0 -12 -3 6 -16z"/>
<path d="M1186 635 c19 -33 25 -55 22 -80 -3 -27 0 -35 12 -35 11 0 15 11 15
45 0 25 -3 45 -7 45 -4 0 -12 16 -19 35 -9 23 -19 35 -31 35 -17 0 -16 -4 8
-45z"/>
<path d="M1268 673 c7 -3 16 -2 19 1 4 3 -2 6 -13 5 -11 0 -14 -3 -6 -6z"/>
<path d="M730 535 c0 -8 7 -15 16 -15 14 0 14 3 4 15 -7 8 -14 15 -16 15 -2 0
-4 -7 -4 -15z"/>
<path d="M860 542 c0 -12 19 -26 26 -19 2 2 -2 10 -11 17 -9 8 -15 8 -15 2z"/>
</g>
</svg>
